<?xml version="1.0" encoding="utf-8"?>
<!-- Svg Vector Icons : http://www.onlinewebfonts.com/icon -->
<!DOCTYPE svg PUBLIC "-//W3C//DTD SVG 1.1//EN" "http://www.w3.org/Graphics/SVG/1.1/DTD/svg11.dtd">
<svg version="1.1" xmlns="http://www.w3.org/2000/svg" xmlns:xlink="http://www.w3.org/1999/xlink" x="0px" y="0px" viewBox="0 0 1000 1000" enable-background="new 0 0 1000 1000" xml:space="preserve">
<metadata> Svg Vector Icons : http://www.onlinewebfonts.com/icon </metadata>
<g><g transform="translate(0.000000,511.000000) scale(0.100000,-0.100000)"><path d="M2775.5,4149.4c-137.2-84.7-254.2-266.3-254.2-403.5c0-157.4,117-359.2,250.2-443.9c125.1-76.7,201.8-80.7,1537.5-80.7h1400.3v-282.5v-282.5h-334.9c-443.9,0-472.1-28.3-472.1-476.2v-330.9H2565.6c-2074.2,0-2344.6-8.1-2401.1-64.6c-48.4-48.4-64.6-149.3-64.6-431.8c0-205.8,20.2-399.5,40.4-431.8c28.3-44.4,137.2-64.6,391.4-80.7l355.1-20.2L899-1536.5c4-1658.5,20.2-2372.8,52.5-2413.2c68.6-80.7,7994.1-80.7,8062.7,0c32.3,40.4,48.4,754.6,52.5,2413.2l12.1,2356.7l355.1,20.2c254.2,16.1,363.2,36.3,391.4,80.7c20.2,32.3,40.4,226,40.4,431.8c0,282.5-16.2,383.4-64.6,431.8c-52.5,56.5-217.9,64.6-1170.3,64.6H7525.1v334.9c0,443.9-28.3,472.2-476.2,472.2h-330.9v282.5v282.5h1404.3c1319.6,0,1408.4,4,1529.4,80.7c330.9,201.8,330.9,645.7,0,847.4c-125.1,76.7-226,80.7-3438.2,80.7C3001.4,4230.2,2900.6,4226.1,2775.5,4149.4z M9514.6,3984c48.4-28.2,100.9-68.6,117.1-92.8c52.4-80.7,32.3-278.4-36.3-355.1c-60.5-68.6-217.9-72.6-3373.6-72.6c-3022.5,0-3317.1,4-3385.7,68.6c-113,100.9-96.8,310.7,32.3,411.6c108.9,84.7,133.2,84.7,3333.3,84.7C8554.2,4028.4,9450,4016.3,9514.6,3984z M6508.2,2930.7l12.1-274.4h-286.5h-282.5v282.5v286.5l274.4-12.1l270.4-12.1L6508.2,2930.7z M7283,2131.7v-282.5H6213.6H5144.3v282.5v282.5h1069.4H7283V2131.7z M9623.6,1356.9v-274.4h-298.6c-516.5,0-468.1,250.2-480.2-2502l-8.1-2360.7H4982.8H1129l-8.1,2360.7c-12.1,2752.2,36.3,2502-480.2,2502H342.1V1365v278.4l4640.7-8.1l4640.7-8.1V1356.9z"/><path d="M1794.9,194.7c-76.7-76.7-80.7-133.2-80.7-1634.3c0-1501.2,4-1557.7,80.7-1634.3c80.7-80.7,133.2-80.7,3228.3-80.7s3147.6,0,3228.3,80.7c76.7,76.7,80.7,133.2,80.7,1634.3c0,1501.2-4,1557.7-80.7,1634.3c-80.7,80.7-133.2,80.7-3228.3,80.7S1875.6,275.5,1794.9,194.7z M8090.1-1439.6v-1472.9H5023.2H1956.3v1472.9V33.3h3066.9h3066.9V-1439.6z"/></g></g>
</svg>